<svg xmlns="http://www.w3.org/2000/svg" xmlns:xlink="http://www.w3.org/1999/xlink" width="30" height="30" viewBox="0 0 30 30">
    <defs>
        <path id="prefix__a" d="M0 0L29.941 0 29.941 29.939 0 29.939z"/>
    </defs>
    <g fill="none" fill-rule="evenodd">
        <mask id="prefix__b" fill="#fff">
            <use xlink:href="#prefix__a"/>
        </mask>
        <path fill="#FFF" d="M21.83 17.941c-.373-.185-2.204-1.082-2.546-1.206-.341-.123-.59-.185-.838.186s-.962 1.206-1.18 1.453c-.217.248-.434.279-.806.093-.373-.185-1.573-.577-2.996-1.84-1.107-.983-1.855-2.197-2.072-2.568-.217-.37-.002-.552.163-.756.403-.498.807-1.021.931-1.268.125-.248.062-.464-.03-.65-.094-.185-.839-2.01-1.149-2.752-.303-.723-.61-.625-.838-.636-.217-.011-.466-.013-.714-.013-.248 0-.652.092-.994.464-.34.37-1.303 1.267-1.303 3.092 0 1.825 1.335 3.587 1.52 3.835.187.247 2.628 3.991 6.364 5.597.889.382 1.583.61 2.124.78.892.283 1.704.243 2.346.148.716-.107 2.203-.897 2.514-1.763.31-.866.31-1.608.217-1.763-.093-.154-.341-.247-.714-.433m-6.796 9.236h-.005c-2.224-.001-4.404-.596-6.307-1.72l-.452-.266-4.69 1.224 1.252-4.55-.295-.467c-1.24-1.963-1.895-4.232-1.894-6.562.003-6.8 5.561-12.33 12.396-12.33 3.31 0 6.42 1.285 8.76 3.616 2.34 2.33 3.627 5.429 3.626 8.724-.003 6.799-5.562 12.33-12.391 12.33M25.578 4.352C22.764 1.547 19.021.001 15.033 0 6.816 0 .128 6.655.125 14.835c-.001 2.614.685 5.167 1.99 7.417L0 29.94l7.903-2.064c2.177 1.183 4.629 1.805 7.124 1.806h.006c8.216 0 14.904-6.655 14.908-14.835.001-3.965-1.548-7.692-4.363-10.496" mask="url(#prefix__b)"/>
    </g>
</svg>
