<svg xmlns="http://www.w3.org/2000/svg" xmlns:xlink="http://www.w3.org/1999/xlink" width="30" height="30" viewBox="0 0 30 30">
    <defs>
        <path id="prefix__a" d="M0 0.069L29.931 0.069 29.931 29.928 0 29.928z"/>
    </defs>
    <g fill="none" fill-rule="evenodd">
        <g transform="translate(0 .003)">
            <mask id="prefix__b" fill="#fff">
                <use xlink:href="#prefix__a"/>
            </mask>
            <path fill="#FFF" d="M27.125 20.597c0 3.602-2.937 6.531-6.547 6.531H9.353c-3.61 0-6.547-2.93-6.547-6.531V9.4c0-3.602 2.937-6.532 6.547-6.532h11.225c3.61 0 6.547 2.93 6.547 6.532v11.197zM20.578.069H9.353C4.188.069 0 4.247 0 9.399v11.198c0 5.152 4.188 9.33 9.353 9.33h11.225c5.165 0 9.353-4.178 9.353-9.33V9.4c0-5.153-4.188-9.331-9.353-9.331z" mask="url(#prefix__b)"/>
        </g>
        <path fill="#FFF" d="M14.966 19.667c-2.578 0-4.677-2.094-4.677-4.665 0-2.574 2.099-4.666 4.677-4.666 2.577 0 4.676 2.092 4.676 4.666 0 2.571-2.099 4.665-4.676 4.665m0-12.13c-4.133 0-7.483 3.342-7.483 7.465 0 4.122 3.35 7.464 7.483 7.464 4.132 0 7.482-3.342 7.482-7.464 0-4.123-3.35-7.465-7.482-7.465M23.01 5.982c.55 0 .997.446.997.995 0 .55-.447.995-.998.995-.55 0-.997-.445-.997-.995s.447-.995.997-.995"/>
    </g>
</svg>
