<svg xmlns="http://www.w3.org/2000/svg" xmlns:xlink="http://www.w3.org/1999/xlink" width="30" height="27" viewBox="0 0 30 27">
    <defs>
        <path id="prefix__a" d="M0 0.015L5.835 0.015 5.835 18.662 0 18.662z"/>
        <path id="prefix__c" d="M0 0.033L5.835 0.033 5.835 5.345 0 5.345z"/>
        <path id="prefix__e" d="M0.01 0.054L20.113 0.054 20.113 19.191 0.01 19.191z"/>
    </defs>
    <g fill="none" fill-rule="evenodd">
        <g transform="translate(0 8.305)">
            <mask id="prefix__b" fill="#fff">
                <use xlink:href="#prefix__a"/>
            </mask>
            <path fill="#FFF" d="M.972 18.662h3.891c.537 0 .972-.428.972-.957V.971c0-.528-.435-.956-.972-.956H.972C.435.015 0 .443 0 .971v16.734c0 .529.435.957.972.957" mask="url(#prefix__b)"/>
        </g>
        <g transform="translate(0 .033)">
            <mask id="prefix__d" fill="#fff">
                <use xlink:href="#prefix__c"/>
            </mask>
            <path fill="#FFF" d="M.972 5.345h3.891c.537 0 .972-.428.972-.956v-3.4c0-.528-.435-.956-.972-.956H.972C.435.033 0 .461 0 .989v3.4c0 .528.435.956.972.956" mask="url(#prefix__d)"/>
        </g>
        <g transform="translate(9.82 7.776)">
            <mask id="prefix__f" fill="#fff">
                <use xlink:href="#prefix__e"/>
            </mask>
            <path fill="#FFF" d="M18.649 2.485c-.547-.708-1.354-1.29-2.42-1.746C15.163.282 13.986.054 12.7.054 10.085.054 7.87 1.036 6.054 3c-.36.39-.624.305-.624-.223V1.5c0-.528-.435-.956-.972-.956H.982C.445.545.01.973.01 1.5v16.734c0 .528.435.956.972.956h3.892c.537 0 .972-.428.972-.956v-5.82c0-2.424.148-4.086.446-4.985.298-.899.848-1.62 1.651-2.166.803-.544 1.71-.817 2.72-.817.79 0 1.465.19 2.026.572.56.382.965.916 1.215 1.604.249.688.373 2.203.373 4.546v7.066c0 .528.435.956.972.956h3.892c.537 0 .972-.428.972-.956V8.758c0-1.675-.108-2.962-.322-3.861-.214-.9-.595-1.703-1.142-2.412" mask="url(#prefix__f)"/>
        </g>
    </g>
</svg>
