<svg xmlns="http://www.w3.org/2000/svg" width="30" height="29" viewBox="0 0 30 29">
    <path fill="#FFF" fill-rule="evenodd" d="M15 0C6.712 0 0 6.657 0 14.868c0 6.57 4.298 12.142 10.256 14.106.75.14 1.025-.32 1.025-.715 0-.353-.012-1.288-.018-2.528-4.173.897-5.053-1.994-5.053-1.994-.682-1.716-1.669-2.175-1.669-2.175-1.358-.922.105-.903.105-.903 1.507.103 2.298 1.532 2.298 1.532 1.337 2.273 3.511 1.616 4.369 1.237.134-.962.52-1.617.95-1.988-3.332-.372-6.833-1.65-6.833-7.347 0-1.623.581-2.95 1.544-3.99-.169-.375-.675-1.887.131-3.935 0 0 1.256-.398 4.125 1.524 1.2-.33 2.475-.494 3.75-.501 1.275.007 2.55.171 3.75.501 2.85-1.922 4.106-1.524 4.106-1.524.807 2.048.3 3.56.15 3.935.957 1.04 1.538 2.367 1.538 3.99 0 5.711-3.507 6.968-6.844 7.334.525.446 1.013 1.358 1.013 2.751 0 1.99-.02 3.588-.02 4.071 0 .39.263.855 1.032.706C25.706 27.004 30 21.428 30 14.868 30 6.658 23.284 0 15 0"/>
</svg>
