<svg xmlns="http://www.w3.org/2000/svg" width="30" height="24" viewBox="0 0 30 24">
    <path fill="#FFF" fill-rule="evenodd" d="M30 2.841c-1.116.482-2.304.801-3.544.957 1.275-.75 2.248-1.928 2.706-3.348-1.189.698-2.501 1.191-3.9 1.466C24.133.733 22.524 0 20.769 0c-3.405 0-6.146 2.721-6.146 6.057 0 .48.041.942.143 1.381C9.652 7.193 5.128 4.78 2.089 1.104c-.53.906-.842 1.944-.842 3.06 0 2.098 1.097 3.957 2.732 5.034-.988-.019-1.958-.301-2.779-.746v.066c0 2.943 2.132 5.387 4.928 5.95-.501.135-1.047.2-1.613.2-.394 0-.791-.022-1.164-.104.797 2.398 3.058 4.162 5.747 4.219-2.093 1.611-4.75 2.583-7.626 2.583-.505 0-.988-.023-1.472-.084C2.724 23.012 5.953 24 9.435 24 20.753 24 26.94 14.77 26.94 6.768c0-.268-.01-.526-.022-.783 1.22-.853 2.246-1.918 3.082-3.144"/>
</svg>
